<?xml version="1.0" encoding="utf-8"?>
<!-- Generator: Adobe Illustrator 25.4.1, SVG Export Plug-In . SVG Version: 6.00 Build 0)  -->
<svg version="1.1" id="Calque_1" xmlns="http://www.w3.org/2000/svg" xmlns:xlink="http://www.w3.org/1999/xlink" x="0px" y="0px"
	 viewBox="0 0 2248.6 597.5" style="enable-background:new 0 0 2248.6 597.5;" xml:space="preserve">
<style type="text/css">
	.st0{fill:#FFF;}
</style>
<path class="st0" d="M287.3,526.5l-116-116L50.8,530.9L0,480.1l120.5-120.5l-116-116l44.9-44.9l116,116l119.6-119.6l50.8,50.8
	L216.1,365.6l116,116L287.3,526.5z"/>
<path class="st0" d="M806.7,590h-65.1l-2.5-67.6c-12.5,14.5-24.4,26.5-35.7,36.1c-11.3,9.6-22.5,17.3-33.6,23.2
	c-11.1,5.8-22.3,10-33.6,12.3c-11.3,2.4-23.2,3.5-35.7,3.5c-43.2,0-75.7-12.7-97.7-38c-22-25.3-33-63.6-33-114.8V170.8h72.7v268.1
	c0,64.3,24.2,96.5,72.7,96.5c8.9,0,17.6-1.3,26.1-4c8.5-2.6,17.4-7.2,26.7-13.8c9.3-6.5,19.3-15.4,30.1-26.5
	c10.7-11.1,22.8-25.2,36.1-42.2V170.8h72.7V590z"/>
<path class="st0" d="M1276.9,590h-72.7V322.4c0-32.3-6.1-56.4-18.2-72.4c-12.1-16-29.4-24-52-24c-9.7,0-18.9,1.3-27.4,4
	c-8.5,2.6-17.3,7.2-26.5,13.8c-9.2,6.5-19.2,15.4-30.1,26.5c-10.9,11.1-23.4,25.1-37.6,41.8V590h-72.7V0h72.7v170.8l-2.5,66
	c11.4-13.6,22.6-25.1,33.6-34.4c11-9.3,22-16.9,33-22.8c11-5.8,22.2-10,33.6-12.5c11.4-2.5,23.2-3.8,35.5-3.8
	c41.8,0,74,12.7,96.9,38.2c22.8,25.5,34.2,63.8,34.2,115V590z"/>
<path class="st0" d="M1775.1,377.1c0,32.6-4.6,62.4-13.8,89.6c-9.2,27.1-22.4,50.4-39.7,69.7c-17.3,19.4-38.3,34.4-63.1,45.1
	c-24.8,10.7-52.9,16.1-84.3,16.1c-30.1,0-57-4.7-80.8-14c-23.8-9.3-44-23-60.5-41.1c-16.6-18.1-29.2-40.5-38-67.2
	c-8.8-26.7-13.2-57.5-13.2-92.3c0-32.6,4.6-62.3,13.8-89.2c9.2-26.9,22.4-50,39.7-69.3c17.3-19.3,38.3-34.4,63.1-45.1
	c24.8-10.7,52.9-16.1,84.3-16.1c30.1,0,57,4.7,80.8,14c23.8,9.3,44,23,60.5,40.9c16.6,18,29.2,40.3,38,67
	C1770.7,311.9,1775.1,342.5,1775.1,377.1z M1700.7,380.4c0-25.9-2.9-48.5-8.6-67.9c-5.7-19.3-13.9-35.5-24.4-48.4
	c-10.6-12.9-23.5-22.7-38.6-29.2c-15.2-6.5-32.1-9.8-50.7-9.8c-21.7,0-40.3,4.2-55.7,12.7c-15.4,8.5-28.1,19.8-38,34
	c-9.9,14.2-17.1,30.7-21.7,49.5c-4.6,18.8-6.9,38.5-6.9,59.1c0,25.9,2.9,48.6,8.6,68.1c5.7,19.5,13.8,35.7,24.4,48.6
	c10.6,12.9,23.4,22.7,38.4,29.2c15,6.5,32,9.8,50.9,9.8c21.7,0,40.3-4.2,55.7-12.7c15.4-8.5,28.1-19.8,38-34
	c9.9-14.2,17.1-30.7,21.7-49.5C1698.4,421.1,1700.7,401.3,1700.7,380.4z"/>
<path class="st0" d="M2248.6,394.2h-164.1v170.4h-71.8V394.2h-164.1v-63.5h164.1V161.6h71.8v169.1h164.1V394.2z"/>
</svg>
